<?xml version="1.0" standalone="no"?><!DOCTYPE svg PUBLIC "-//W3C//DTD SVG 1.1//EN" "http://www.w3.org/Graphics/SVG/1.1/DTD/svg11.dtd"><svg t="1709186270535" class="icon" viewBox="0 0 1024 1024" version="1.1" xmlns="http://www.w3.org/2000/svg" p-id="2717" xmlns:xlink="http://www.w3.org/1999/xlink" width="256" height="256"><path d="M369.10933333 417.51466667c-11.65866667-10.98666667-30.02666667-10.51733333-41.10933333 1.04533333l-101.84533333 106.67733333c-11.02933333 11.50933333-10.61333333 29.73866667 0.928 40.736 0.04266667 0.032 0.07466667 0.07466667 0.11733333 0.10666667l107.06133333 102.16533333c11.70133333 10.656 29.83466667 9.93066667 40.64-1.62133333 11.30666667-11.328 11.30666667-29.632 0-40.96l-86.048-80.992 81.86666667-85.62133333c11.072-11.63733333 10.58133333-30.02666667-1.09866667-41.056a5.45066667 5.45066667 0 0 0-0.512-0.48zM597.76 678.19733333c10.96533333 11.56266667 29.26933333 12.08533333 40.87466667 1.152 0.04266667-0.032 0.07466667-0.07466667 0.11733333-0.10666666l107.76533333-101.58933334c5.55733333-5.30133333 8.768-12.58666667 8.93866667-20.24533333a28.544 28.544 0 0 0-8.93866667-20.59733333l-101.84533333-106.67733334c-11.06133333-11.56266667-29.44-12.01066667-41.04533333-0.98133333-11.60533333 11.01866667-12.05333333 29.33333333-0.992 40.90666667l81.29066666 85.62133333-86.048 80.992c-11.54133333 11.17866667-11.808 29.568-0.58666666 41.06666667 0.14933333 0.14933333 0.30933333 0.30933333 0.46933333 0.45866666zM485.81333333 399.34933333l-58.05866666 289.26933334c-3.08266667 15.68 7.168 30.88 22.90133333 33.952 0.10666667 0.02133333 0.21333333 0.04266667 0.33066667 0.064 1.888 0.17066667 3.79733333 0.17066667 5.68533333 0 13.80266667 0 25.696-9.67466667 28.448-23.14666667l58.05866667-289.26933333c3.21066667-15.65866667-6.93333333-30.93333333-22.64533334-34.13333334s-31.05066667 6.90133333-34.26133333 22.56l-0.45866667 0.704z" p-id="2718"></path><path d="M619.82933333 931.47733333H116.07466667c-13.73866667 0.064-24.96-10.95466667-25.088-24.65066666V364.512h137.024c52.56533333-0.064 95.15733333-42.50666667 95.22133333-94.88V92.608h523.616c13.73866667-0.064 24.96 10.95466667 25.088 24.65066667v470.816c0 15.97866667 13.00266667 28.928 29.03466667 28.928s29.03466667-12.94933333 29.03466666-28.928v-470.82666667c-0.128-45.64266667-37.33333333-82.56-83.14666666-82.496H293.38666667c-1.38666667-0.11733333-2.784-0.11733333-4.18133334 0h-1.39733333a34.66666667 34.66666667 0 0 0-4.64 1.38666667l-4.53333333 2.432-1.04533334 0.81066666c-1.04533333 0.71466667-2.016 1.52533333-2.90133333 2.432l-1.28 1.152-0.928 1.04533334L40.24533333 315.91466667v0.81066666a34.9024 34.9024 0 0 0-3.59466666 5.67466667v0.69333333c-0.94933333 2.21866667-1.62133333 4.55466667-1.97333334 6.944v576.8c0.128 45.64266667 37.33333333 82.56 83.14666667 82.496H619.84c16.032 0 29.03466667-12.94933333 29.03466667-28.928-0.02133333-15.97866667-13.01333333-28.928-29.04533334-28.928zM265.17333333 142.24v127.27466667c0 20.448-16.64 37.024-37.16266666 37.024h-103.232L265.17333333 142.24z" p-id="2719"></path><path d="M989.33333333 817.97333333c-0.24533333-11.424-1.45066667-22.79466667-3.59466666-34.016-1.33333333-13.83466667-12.768-24.53333333-26.70933334-24.992h-1.39733333c-16.224 0-29.41866667-13.00266667-29.61066667-29.16266666 0.18133333-3.97866667 1.04533333-7.89333333 2.56-11.57333334 6.05866667-14.09066667 1.17333333-30.47466667-11.616-38.99733333l-42.03733333-23.14666667c-12.61866667-5.09866667-27.06133333-2.176-36.69333333 7.40266667a49.3664 49.3664 0 0 1-24.04266667 14.464 48.8352 48.8352 0 0 1-24.384-14.80533333c-9.51466667-9.61066667-23.904-12.576-36.45866667-7.52l-44.01066666 24.18133333-1.28 0.81066667c-12.07466667 8.512-16.576 24.26666667-10.79466667 37.83466666 1.52533333 3.68 2.432 7.59466667 2.66666667 11.57333334-0.064 16.29866667-13.376 29.45066667-29.728 29.38666666h-1.62133334c-13.536 0.71466667-24.55466667 11.104-26.016 24.53333334a219.2576 219.2576 0 0 0-3.59466666 33.89866666c0.32 11.33866667 1.52533333 22.63466667 3.59466666 33.78133334 1.36533333 13.62133333 12.52266667 24.20266667 26.24 24.87466666h1.39733334c16.37333333 0 29.664 13.19466667 29.728 29.504a34.66666667 34.66666667 0 0 1-2.66666667 11.57333334c-6.016 14.09066667-1.14133333 30.45333333 11.616 38.99733333l41.344 23.14666667a33.52213333 33.52213333 0 0 0 36.928-7.75466667 51.21493333 51.21493333 0 0 1 24.736-15.392 50.70293333 50.70293333 0 0 1 24.85333333 15.616 33.23946667 33.23946667 0 0 0 24.50133334 10.528c5.07733333-0.10666667 10.048-1.41866667 14.51733333-3.81866667l41.568-23.14666666 1.16266667-0.81066667c11.97866667-8.53333333 16.416-24.20266667 10.688-37.71733333a37.248 37.248 0 0 1-2.66666667-11.57333334c0.37333333-16.08533333 13.472-28.97066667 29.61066667-29.16266666h1.73866666c13.632-0.88533333 24.62933333-11.456 26.016-24.992V850.13333333c2.00533333-10.60266667 3.168-21.36533333 3.456-32.16z m-102.304 105.984l-21.83466666 11.57333334c-3.136-2.77333333-6.38933333-5.44-9.64266667-7.872-23.38133333-20.91733333-58.82666667-20.91733333-82.21866667 0-3.136 2.31466667-6.38933333 4.97066667-9.52533333 7.75466666L743.25333333 923.84c1.64266667-5.76 2.496-11.712 2.56-17.70666667-0.07466667-35.06133333-25.03466667-65.16266667-59.57333333-71.85066666-0.69333333-5.39733333-1.16266667-10.83733333-1.39733333-16.30933334 0-5.55733333 0.69333333-11.57333333 1.39733333-16.66133333 34.56-6.74133333 59.50933333-36.88533333 59.57333333-71.968a64.224 64.224 0 0 0-2.56-17.472l23.22133334-12.608c3.05066667 2.74133333 6.272 5.29066667 9.64266666 7.63733333 23.12533333 19.49866667 57.00266667 19.49866667 80.128 0 3.25333333-2.31466667 6.50666667-4.864 9.52533334-7.40266666l21.6 11.57333333c-10.31466667 38.4 12.56533333 77.856 51.104 88.128 1.952 0.52266667 3.92533333 0.96 5.90933333 1.312 0.82133333 5.48266667 1.28 11.008 1.39733333 16.544-0.10666667 5.536-0.56533333 11.072-1.39733333 16.544-34.54933333 6.79466667-59.456 36.992-59.456 72.08533333-0.05333333 6.144 0.65066667 12.288 2.10133333 18.272z" p-id="2720"></path><path d="M816.42666667 751.21066667c-18.144-0.384-35.73333333 6.29333333-49.00266667 18.624-26.99733333 25.39733333-28.224 67.79733333-2.73066667 94.70933333 12.768 13.48266667 30.58133333 21.07733333 49.184 21.00266667 37.312-0.896 66.83733333-31.76533333 65.93066667-68.94933334-0.85333333-35.15733333-28.71466667-63.744-63.95733333-65.62133333l0.576 0.23466667z m-1.97333334 43.27466666c12.832-0.192 23.38133333 10.016 23.57333334 22.79466667 0.192 12.77866667-10.048 23.296-22.88 23.488-13.344 0.45866667-24.576-9.856-25.19466667-23.14666667 0.61866667-13.00266667 11.424-23.21066667 24.50133333-23.136z" p-id="2721"></path></svg>